<?xml version="1.0" encoding="utf-8"?>
<!-- Generator: Adobe Illustrator 21.1.0, SVG Export Plug-In . SVG Version: 6.00 Build 0)  -->
<svg version="1.1" id="Layer_1" xmlns="http://www.w3.org/2000/svg" xmlns:xlink="http://www.w3.org/1999/xlink" x="0px" y="0px"
	 viewBox="0 0 500 500" style="enable-background:new 0 0 500 500;" xml:space="preserve">
<path d="M387.7,0H112.3C50.3,0,0,50.3,0,112.3v275.4C0,449.7,50.3,500,112.3,500h275.4c62,0,112.3-50.3,112.3-112.3V112.3
	C500,50.3,449.7,0,387.7,0z M397.3,377.3l-6.7-6.7l-16.3-16.3l-25.8-25.8v19H316H186h-32.5V315v-24.4H186V315h130v-24.4v-24.4H153.5
	v-32.5H316V185H186v24.4h-32.5V185v-32.5H186h130h32.5V185v48.8v32.5v24.4v7l7.6-7.6l25,25V120H121V380h227.6v32.5H121H88.5V380V120
	V87.4H121h260.1h32.5V120V315l25-25l23,23L397.3,377.3z"/>
</svg>
