<?xml version="1.0" encoding="utf-8"?>
<!-- Generator: Adobe Illustrator 21.0.2, SVG Export Plug-In . SVG Version: 6.00 Build 0)  -->
<svg version="1.1" id="Layer_1" xmlns="http://www.w3.org/2000/svg" xmlns:xlink="http://www.w3.org/1999/xlink" x="0px" y="0px"
	 viewBox="0 0 500 500" style="enable-background:new 0 0 500 500;" xml:space="preserve">
<style type="text/css">
	.st0{fill-rule:evenodd;clip-rule:evenodd;}
</style>
<g>
	<path class="st0" d="M387.7,0H112.3C50.3,0,0,50.3,0,112.3v275.4C0,449.7,50.3,500,112.3,500h275.4c62,0,112.3-50.3,112.3-112.3
		V112.3C500,50.3,449.7,0,387.7,0z M421.1,233.7l-0.2-0.3l-0.3,0.2l-46.3-47.8l15.5-15l21.4,22v-44.2c0-32.9-26.9-59.9-59.9-59.9
		H148.7c-32.9,0-59.9,26.9-59.9,59.9v202.6c0,32.9,26.9,59.9,59.9,59.9h202.6c32.9,0,59.9-26.9,59.9-59.9v-58.9h22.9v63.7
		c0,42.9-35.1,78-78,78H143.9c-42.9,0-78-35.1-78-78V143.9c0-42.9,35.1-78,78-78h212.2c42.9,0,78,35.1,78,78V191l19.7-19.1l15,15.5
		L421.1,233.7z M255.3,327.2c26.2,0,48.5-15,48.5-38.1c0-20.7-17.6-29.8-44.6-29.8h-22.8v-28l46.4-45.1h6.5v-28.5v-2.1h30.6v30.6
		h-0.3l-48,45.9c36.5,3.6,60.1,24.4,60.1,57c0,39.7-35.3,66.4-76.5,66.4c-24.1,0-59.1-13.5-75.9-35l17.4-24.1
		C214.3,318.4,237.7,327.2,255.3,327.2z M198.5,186.2v-28.5v-2.1h30.6v2.1v28.5H198.5z M243.9,186.2v-28.5v-2.1h30.6v2.1v28.5H243.9
		z"/>
</g>
</svg>
